<svg width="76" height="76" viewBox="0 0 76 76" fill="none" xmlns="http://www.w3.org/2000/svg">
<path fill-rule="evenodd" clip-rule="evenodd" d="M65.6323 29.9161L74.3727 19.665C74.9076 19.0739 75.1285 18.2632 74.9674 17.4826C74.8063 16.7019 74.2825 16.0448 73.5573 15.7138L48.3269 3.2417C48.0793 3.11927 47.7794 3.2207 47.6569 3.46826C47.5345 3.71582 47.6359 4.01575 47.8835 4.13818L73.1315 16.6187C73.5725 16.8158 73.8915 17.2133 73.9885 17.6865C74.0855 18.1597 73.9486 18.6506 73.6208 19.0054L64.7614 29.3958L52.8444 22.4498C52.6058 22.3106 52.2995 22.3913 52.1604 22.6299C52.0212 22.8686 52.1019 23.1749 52.3405 23.314L63.8149 30.002L37.6638 42.4917L11.5353 30.0124L22.529 23.9058C22.6864 23.8196 22.7856 23.6556 22.7889 23.4761C22.7921 23.2967 22.699 23.1292 22.5447 23.0374C22.3905 22.9456 22.1989 22.9434 22.0427 23.0318L10.8085 29.2719L2.08662 19.1113C1.75778 18.7561 1.62039 18.2641 1.71762 17.7899C1.81484 17.3156 2.13475 16.9174 2.57685 16.7202L27.1345 4.13477C27.2945 4.05375 27.3989 3.89324 27.408 3.71411C27.4171 3.53498 27.3297 3.36468 27.1787 3.26778C27.0278 3.17089 26.8365 3.16224 26.6775 3.24512L2.13837 15.8213C1.415 16.1561 0.894466 16.8155 0.736867 17.5969C0.579268 18.3782 0.80347 19.1879 1.34052 19.7769L9.87922 29.7258L1.28681 37.8218C0.704363 38.3702 0.419616 39.1642 0.52085 39.9577C0.622083 40.7513 1.09706 41.4484 1.79853 41.833L9.94501 46.3582V60.8174C9.94795 61.7796 10.5001 62.6556 11.3669 63.0732L36.5866 75.1182C37.2679 75.445 38.0606 75.445 38.7419 75.1182L63.9616 63.0732C64.8284 62.6556 65.3806 61.7796 65.3835 60.8174V46.1514L73.4235 41.7563C74.1263 41.3726 74.6027 40.6754 74.7047 39.8812C74.8067 39.087 74.5221 38.292 73.9391 37.7431L65.6323 29.9161ZM1.51337 39.833C1.44929 39.356 1.62037 38.8775 1.97237 38.5493L10.421 30.5887L36.6232 43.1032L26.1159 53.002C25.6451 53.4477 24.9406 53.539 24.3718 53.2281L2.28095 40.957C1.85812 40.7288 1.57205 40.3099 1.51337 39.833ZM10.945 60.8174C10.9467 61.3948 11.2782 61.9205 11.7985 62.1709L37.0183 74.2158C37.0658 74.2352 37.1144 74.2521 37.1638 74.2664V43.9673L26.8015 53.7295C26.0149 54.4731 24.8385 54.6244 23.8894 54.104L10.945 46.9137V60.8174ZM64.3835 60.8174C64.3818 61.3948 64.0503 61.9205 63.53 62.1709L38.3102 74.2158C38.2623 74.2354 38.2134 74.2524 38.1638 74.2668V44.5368L47.9216 53.7295C48.7086 54.4738 49.886 54.6251 50.8356 54.104L64.3835 46.6981L64.3835 60.8174ZM72.9441 40.8784C73.3676 40.65 73.6543 40.2308 73.7136 39.7534C73.7768 39.2768 73.6054 38.799 73.2536 38.4712L64.8948 30.5947L38.3032 43.2947L48.6071 53.0019C49.0797 53.4484 49.7863 53.5389 50.3561 53.2261L72.9441 40.8784Z" fill="black"/>
<path d="M36.3111 25.7559C36.8963 26.3242 37.8274 26.3242 38.4127 25.7559L46.5748 17.75C46.7706 17.5561 46.7728 17.2405 46.5797 17.0439C46.3866 16.8473 46.071 16.8439 45.8736 17.0361L37.8619 24.8945V0.5C37.8619 0.223858 37.638 0 37.3619 0C37.0858 0 36.8619 0.223858 36.8619 0.5V24.8955L28.8492 17.0361C28.7217 16.9109 28.537 16.8632 28.3648 16.911C28.1926 16.9588 28.0589 17.0949 28.0142 17.2679C27.9695 17.441 28.0205 17.6247 28.148 17.75L36.3111 25.7559Z" fill="black"/>
</svg>
