<svg width="34" height="21" viewBox="0 0 34 21" fill="none" xmlns="http://www.w3.org/2000/svg">
<path fill-rule="evenodd" clip-rule="evenodd" d="M26.8932 5.59027V9.19297H23.1948V11.7155H26.8932V15.32H29.6663V11.7155H33.3638V9.10288H29.6663V5.59027H26.8932ZM10.6242 8.38252V12.4366H16.1704C15.8007 14.7789 13.6747 16.4906 10.6242 16.4906C7.29652 16.4906 4.52342 13.6978 4.52342 10.4546C4.52342 7.21135 7.20409 4.41855 10.6242 4.41855C12.1957 4.41855 13.4898 4.869 14.599 5.95009L17.557 3.0672C15.7083 1.44558 13.3973 0.45459 10.6242 0.45459C4.98561 0.45459 0.36377 4.95909 0.36377 10.4546C0.36377 15.9501 4.98561 20.4546 10.6242 20.4546C16.6326 20.4546 20.515 16.3104 20.515 10.6348C20.515 9.91405 20.4225 9.10324 20.3301 8.38252H10.6242Z" fill="white"/>
</svg>
