<svg width="27" height="27" viewBox="0 0 27 27" fill="none" xmlns="http://www.w3.org/2000/svg">
<path fill-rule="evenodd" clip-rule="evenodd" d="M9.65231 26.7273H15.036V18.1359C15.036 15.8707 15.4664 13.6771 18.27 13.6771C21.033 13.6771 21.0699 16.2675 21.0699 18.2814V26.7273H26.4546V17.201C26.4546 12.5255 25.4475 8.92828 19.9909 8.92828C17.3694 8.92828 15.6117 10.3678 14.8925 11.7332H14.8201V9.36018H9.65231V26.7273ZM3.57936 0.727295C5.30195 0.727295 6.70212 2.12963 6.70212 3.85596C6.70212 5.58355 5.30195 6.98614 3.57936 6.98614C1.85224 6.98614 0.45459 5.58355 0.45459 3.85596C0.45459 2.12963 1.85224 0.727295 3.57936 0.727295ZM0.883723 26.7273H6.27223V9.36018H0.883723V26.7273Z" fill="white"/>
</svg>
