<svg width="111" height="28" viewBox="0 0 111 28" fill="none" xmlns="http://www.w3.org/2000/svg">
<path fill-rule="evenodd" clip-rule="evenodd" d="M42.0551 6.09583H35.9669C35.5505 6.09556 35.1959 6.40288 35.131 6.82021L32.6687 22.6601C32.6458 22.8088 32.6882 22.9603 32.7848 23.0746C32.8813 23.1889 33.0224 23.2546 33.1708 23.2544H36.0773C36.494 23.2546 36.8488 22.9468 36.9132 22.5291L37.5773 18.2569C37.6418 17.8395 37.996 17.5318 38.4124 17.5316H40.3397C44.3501 17.5316 46.6646 15.5625 47.2691 11.6606C47.5415 9.9535 47.2807 8.61221 46.4928 7.67286C45.6275 6.64137 44.0928 6.09583 42.0551 6.09583ZM42.7575 11.881C42.4245 14.0975 40.7554 14.0975 39.1414 14.0975H38.2227L38.8673 9.95802C38.9062 9.70783 39.1188 9.52357 39.3684 9.52357H39.7895C40.8889 9.52357 41.926 9.52357 42.4619 10.1594C42.7815 10.5388 42.8794 11.1024 42.7575 11.881ZM57.3383 11.8096H60.2538C60.4019 11.8096 60.5426 11.8754 60.6387 11.9898C60.7348 12.1042 60.7767 12.2556 60.7532 12.404L59.1775 22.5282C59.113 22.9459 58.7583 23.2537 58.3416 23.2535H55.7155C55.567 23.2533 55.4261 23.1871 55.3299 23.0724C55.2336 22.9578 55.1917 22.8061 55.2152 22.6574L55.3451 21.8354C55.3451 21.8354 53.9057 23.529 51.3098 23.529C49.7973 23.529 48.5261 23.0864 47.6376 22.0242C46.6691 20.869 46.2729 19.2125 46.5516 17.4801C47.0875 14.0072 49.8392 11.5314 53.0608 11.5314C54.4656 11.5314 55.873 11.8421 56.5042 12.7716L56.708 13.0714L56.8371 12.2441C56.8761 11.9939 57.0887 11.8096 57.3383 11.8096ZM56.1899 17.5668C55.9086 19.2567 54.5867 20.3912 52.9006 20.3912C52.054 20.3912 51.3774 20.1157 50.943 19.5936C50.5122 19.0752 50.3484 18.3372 50.4854 17.5153C50.7481 15.8398 52.0923 14.6683 53.7525 14.6683C54.5804 14.6683 55.2534 14.9474 55.6968 15.474C56.141 16.006 56.3172 16.7485 56.1899 17.5668ZM72.8512 11.8096H75.7809C75.9697 11.8097 76.1428 11.9162 76.2303 12.0859C76.3178 12.2557 76.3052 12.4607 76.1975 12.618L66.4532 26.889C66.2951 27.1202 66.0353 27.2579 65.758 27.2575H62.8318C62.642 27.2576 62.468 27.1501 62.3808 26.979C62.2937 26.8078 62.308 26.6017 62.4179 26.4446L65.4517 22.0992L62.2247 12.4907C62.1718 12.3332 62.1971 12.1595 62.2927 12.0243C62.3883 11.8892 62.5423 11.8092 62.7063 11.8096H65.5853C65.9594 11.8098 66.2892 12.0586 66.3971 12.422L68.1099 18.2252L72.1506 12.1863C72.3085 11.951 72.5707 11.8101 72.8512 11.8096Z" fill="#151515"/>
<path fill-rule="evenodd" clip-rule="evenodd" d="M104.617 22.6601L107.115 6.53033C107.154 6.28031 107.366 6.09587 107.616 6.09497H110.429C110.577 6.09524 110.718 6.16128 110.814 6.27574C110.91 6.39019 110.952 6.54162 110.929 6.6902L108.465 22.5292C108.401 22.9474 108.047 23.2545 107.629 23.2545H105.117C104.969 23.2545 104.828 23.1886 104.732 23.0743C104.636 22.96 104.593 22.8086 104.617 22.6601ZM85.4806 6.09587H79.3915C78.9754 6.09605 78.6213 6.40326 78.5565 6.82026L76.0941 22.6601C76.071 22.8086 76.113 22.96 76.2093 23.0743C76.3055 23.1886 76.4462 23.2545 76.5944 23.2545H79.7191C80.0103 23.254 80.258 23.0388 80.3031 22.7468L81.0019 18.2569C81.0663 17.8396 81.4205 17.5319 81.8369 17.5316H83.7633C87.7746 17.5316 90.0883 15.5626 90.6936 11.6606C90.9669 9.95355 90.7043 8.61226 89.9165 7.67291C89.0521 6.64142 87.5183 6.09587 85.4806 6.09587ZM86.1829 11.881C85.8509 14.0976 84.1817 14.0976 82.5669 14.0976H81.6491L82.2945 9.95807C82.3327 9.70782 82.5452 9.5233 82.7948 9.52362H83.2158C84.3144 9.52362 85.3524 9.52362 85.8883 10.1595C86.2079 10.5388 86.3049 11.1025 86.1829 11.881ZM100.765 11.8097H103.678C103.827 11.8095 103.968 11.8752 104.065 11.9894C104.161 12.1037 104.204 12.2552 104.181 12.404L102.605 22.5283C102.54 22.9456 102.186 23.2533 101.77 23.2536H99.1445C98.9957 23.2539 98.8543 23.1879 98.7577 23.0732C98.661 22.9584 98.6189 22.8065 98.6424 22.6574L98.7724 21.8355C98.7724 21.8355 97.3329 23.529 94.737 23.529C93.2245 23.529 91.9551 23.0865 91.0649 22.0243C90.0963 20.869 89.702 19.2125 89.9797 17.4801C90.5156 14.0072 93.2664 11.5315 96.4881 11.5315C97.8928 11.5315 99.2994 11.8422 99.9305 12.7716L100.135 13.0715L100.264 12.2441C100.302 11.9937 100.515 11.809 100.765 11.8097ZM99.6145 17.5668C99.335 19.2568 98.0112 20.3912 96.3251 20.3912C95.4803 20.3912 94.802 20.1157 94.3676 19.5937C93.9367 19.0752 93.7747 18.3373 93.91 17.5154C94.1744 15.8399 95.5168 14.6684 97.1771 14.6684C98.005 14.6684 98.678 14.9475 99.1213 15.4741C99.5673 16.0061 99.7436 16.7485 99.6145 17.5668Z" fill="#151515"/>
<path d="M7.3856 26.3327L7.85118 23.3322L6.81408 23.3078H1.86182L5.30339 1.167C5.32456 1.02717 5.44349 0.924185 5.58292 0.924931H13.9331C16.7053 0.924931 18.6183 1.51022 19.6172 2.66545C20.0854 3.20738 20.3836 3.7737 20.5278 4.39693C20.6792 5.05087 20.6819 5.83216 20.5341 6.78506L20.5234 6.85461V7.46519L20.9916 7.73435C21.3491 7.9181 21.6704 8.16667 21.9397 8.46777C22.3403 8.93112 22.5994 9.52003 22.7089 10.2182C22.8219 10.9363 22.7845 11.7907 22.5994 12.7581C22.3857 13.8709 22.0403 14.84 21.5738 15.6331C21.1623 16.3435 20.6089 16.9588 19.9492 17.4395C19.3296 17.8857 18.5934 18.2244 17.7611 18.4412C16.9545 18.6544 16.0349 18.7618 15.0263 18.7618H14.3765C13.9118 18.7618 13.4604 18.9316 13.1061 19.236C12.7523 19.5437 12.5176 19.9687 12.4438 20.4355L12.3948 20.7056L11.5723 25.994L11.5349 26.1882C11.5251 26.2496 11.5082 26.2803 11.4833 26.3011C11.4591 26.3211 11.429 26.3322 11.3978 26.3327H7.3856Z" fill="#253B80"/>
<path d="M21.435 6.92505C21.4101 7.08673 21.3816 7.25202 21.3495 7.42182C20.2483 13.1582 16.4809 15.1399 11.6693 15.1399H9.21945C8.63102 15.1399 8.13517 15.5734 8.04348 16.1623L6.78917 24.2336L6.43397 26.5214C6.40534 26.7051 6.45737 26.8923 6.57637 27.0337C6.69536 27.1751 6.86941 27.2566 7.05267 27.2567H11.3978C11.9124 27.2567 12.3494 26.8773 12.4305 26.3625L12.4732 26.1385L13.2913 20.8709L13.3438 20.5818C13.4239 20.0652 13.8619 19.6858 14.3765 19.6858H15.0263C19.2362 19.6858 22.5317 17.9516 23.4949 12.9333C23.8973 10.8369 23.689 9.08647 22.6243 7.85537C22.2869 7.47454 21.8838 7.15928 21.435 6.92505V6.92505Z" fill="#636363"/>
<path d="M20.283 6.45897C19.9314 6.35577 19.5737 6.27522 19.2121 6.21781C18.4975 6.10639 17.7754 6.05293 17.0524 6.05794H10.5076C9.99292 6.05754 9.55486 6.43796 9.47581 6.95394L8.08352 15.9013L8.04346 16.1623C8.13308 15.5738 8.63248 15.1396 9.21943 15.1399H11.6693C16.4809 15.1399 20.2483 13.1573 21.3495 7.42181C21.3824 7.252 21.41 7.08671 21.435 6.92504C21.1444 6.77043 20.8415 6.64081 20.5296 6.53755C20.4478 6.51002 20.3656 6.48382 20.283 6.45897V6.45897Z" fill="#393939"/>
<path d="M9.47593 6.95394C9.55431 6.43772 9.99291 6.05722 10.5077 6.05884H17.0526C17.8279 6.05884 18.5517 6.11032 19.2122 6.21871C19.6592 6.28999 20.1 6.39659 20.5306 6.53755C20.8556 6.64684 21.1573 6.776 21.436 6.92503C21.7636 4.80516 21.4333 3.36181 20.3036 2.05484C19.0582 0.616 16.8104 0 13.9341 0H5.58391C4.99637 0 4.49518 0.433548 4.40438 1.02335L0.926307 23.3917C0.893522 23.6019 0.953004 23.8161 1.08911 23.978C1.22521 24.1399 1.42431 24.2333 1.63403 24.2335H6.78926L8.08364 15.9013L9.47593 6.95394Z" fill="#151515"/>
</svg>
