<svg width="76" height="76" viewBox="0 0 76 76" fill="none" xmlns="http://www.w3.org/2000/svg">
<path d="M8.13177 26.5493C8.17451 26.5609 8.21861 26.5667 8.26289 26.5666C8.49217 26.5664 8.69269 26.4121 8.75174 26.1906L14.7689 3.6459C15.2784 1.75643 17.2186 0.633589 19.1107 1.13331L37.7391 6.10547C39.6315 6.61078 40.7561 8.5543 40.2512 10.4468L38.9523 15.314C38.9177 15.4438 38.936 15.5821 39.0033 15.6983C39.0705 15.8146 39.1813 15.8994 39.3111 15.934C39.5307 15.9924 39.7619 15.8938 39.872 15.695C41.8203 14.1936 44.5124 14.1126 46.5475 15.4942C48.5826 16.8757 49.5008 19.4076 48.8245 21.7725C48.1482 24.1375 46.03 25.801 43.5722 25.8976C41.1601 25.989 38.951 24.554 38.0541 22.3129C38.0102 22.1393 37.8765 22.0026 37.704 21.9546C37.434 21.8849 37.1581 22.0446 37.084 22.3134L34.234 32.9914C34.1993 33.1212 34.2176 33.2595 34.2849 33.3758C34.3522 33.492 34.4629 33.5768 34.5927 33.6114C34.6355 33.623 34.6796 33.6288 34.7238 33.6287C34.9531 33.6285 35.1536 33.4743 35.2127 33.2527L37.7246 23.8415C38.9574 25.7523 41.0736 26.9092 43.3476 26.9154C43.4356 26.9154 43.5237 26.9134 43.6118 26.91C46.3662 26.8137 48.7818 25.0431 49.7028 22.4455C50.6239 19.8478 49.8632 16.9511 47.7846 15.1411C45.706 13.3312 42.7322 12.9761 40.2858 14.2456L41.2298 10.708C41.5418 9.53966 41.3769 8.29519 40.7712 7.24847C40.1655 6.20175 39.1688 5.43854 38.0004 5.12679L19.372 0.154611C16.9391 -0.491764 14.4421 0.953181 13.7902 3.38461L7.77303 25.9293C7.73834 26.0591 7.75665 26.1974 7.82394 26.3136C7.89122 26.4299 8.00196 26.5147 8.13177 26.5493Z" fill="black"/>
<path d="M72.2019 13.8658L49.581 8.14109C49.4053 8.0963 49.2191 8.14877 49.0926 8.27869C48.9662 8.40862 48.9187 8.5962 48.9683 8.7706C49.0178 8.94501 49.1567 9.07967 49.3326 9.12374L71.9535 14.8485C72.8653 15.0793 73.6481 15.663 74.1296 16.471C74.6111 17.279 74.7519 18.2452 74.521 19.157L69.7907 37.8483C69.3097 39.7469 67.3809 40.8965 65.482 40.4163L60.5985 39.1803C60.3272 39.1122 60.052 39.2764 59.983 39.5474C59.9294 39.7681 60.031 39.9972 60.2305 40.1055C61.748 42.0275 61.8666 44.7046 60.5249 46.7532C59.1832 48.8018 56.6818 49.763 54.3135 49.1401C51.9451 48.5171 50.2405 46.4495 50.0804 44.0059C49.9203 41.5622 51.3408 39.29 53.6076 38.3634C53.6247 38.3535 53.6412 38.3425 53.6569 38.3306C53.7952 38.276 53.9006 38.1607 53.9426 38.018C54.0108 37.7467 53.8466 37.4714 53.5754 37.4025L42.8612 34.6911C42.6854 34.6458 42.4987 34.698 42.3719 34.8281C42.2452 34.9581 42.1977 35.146 42.2474 35.3207C42.2972 35.4953 42.4366 35.63 42.6128 35.6737L52.0554 38.0634C49.5937 39.698 48.4928 42.7518 49.3453 45.5811C50.1978 48.4104 52.8025 50.3477 55.7575 50.3502C55.8772 50.3502 55.9974 50.3468 56.1177 50.3408C58.4088 50.2293 60.4829 48.9512 61.6124 46.9547C62.742 44.9582 62.7694 42.5221 61.6849 40.5008L65.2338 41.399C66.4063 41.6959 67.6487 41.5148 68.6877 40.8954C69.7266 40.2761 70.4769 39.2693 70.7734 38.0967L75.5036 19.4055C76.1185 16.9644 74.6415 14.4863 72.2019 13.8658Z" fill="black"/>
<path d="M67.944 48.8535C67.8138 48.8197 67.6755 48.8394 67.5599 48.908C67.4442 48.9767 67.3607 49.0887 67.328 49.2191L61.5696 71.8316C61.3376 72.7432 60.7529 73.5252 59.9442 74.0057C59.1355 74.4862 58.1691 74.6257 57.2575 74.3936L38.5732 69.6357C36.6763 69.1503 35.5303 67.2211 36.0112 65.3231L37.2541 60.4415C37.2874 60.3113 37.2675 60.1732 37.199 60.0577C37.1304 59.9421 37.0187 59.8586 36.8884 59.8255C36.6678 59.7693 36.4373 59.8707 36.3296 60.0713C34.6579 61.3926 32.3884 61.6698 30.4478 60.7899C28.5072 59.9099 27.2204 58.02 27.1128 55.8919C26.972 53.1208 28.8475 50.6512 31.5547 50.043C34.2618 49.4349 37.0135 50.8651 38.0713 53.4301C38.1273 53.6497 38.3253 53.8031 38.5519 53.8024C38.7833 53.8022 38.9851 53.6451 39.0423 53.4209L41.7695 42.7111C41.8387 42.4401 41.675 42.1643 41.4039 42.0951C41.1328 42.026 40.857 42.1897 40.7879 42.4608L38.3839 51.901C36.9488 49.7366 34.3929 48.5956 31.8235 48.9724C29.2541 49.3492 27.1334 51.176 26.3802 53.6612C25.627 56.1465 26.3768 58.8432 28.3048 60.583C29.5336 61.6996 31.1352 62.317 32.7955 62.3143C32.9113 62.3143 33.0276 62.3113 33.1444 62.3054C34.1198 62.2529 35.0718 61.9865 35.9328 61.5251L35.0295 65.0728C34.7308 66.2448 34.91 67.4874 35.5277 68.5273C36.1453 69.5671 37.1508 70.319 38.3228 70.6174L57.0072 75.3754C57.3774 75.47 57.7581 75.518 58.1402 75.5183C60.222 75.5123 62.0361 74.099 62.5513 72.082L68.3097 49.4695C68.343 49.3393 68.3231 49.2012 68.2545 49.0857C68.186 48.9701 68.0742 48.8866 67.944 48.8535Z" fill="black"/>
<path d="M26.2237 66.8352L3.65877 60.8927C2.74912 60.6533 1.97187 60.0622 1.49806 59.2496C1.02425 58.437 0.892706 57.4695 1.13237 56.5599L6.04218 37.9151C6.54299 36.0224 8.48115 34.8921 10.3751 35.3882L15.2463 36.6712C15.4906 36.7384 15.7467 36.6126 15.843 36.3783C15.9392 36.1439 15.8455 35.8745 15.6245 35.7505C14.3163 34.0681 14.0572 31.796 14.9529 29.8622C15.8487 27.9285 17.7493 26.6568 19.8785 26.5666C22.6524 26.4484 25.1077 28.3463 25.6921 31.0605C26.2765 33.7746 24.8198 36.5149 22.2432 37.5487C22.0723 37.5939 21.9384 37.7265 21.8914 37.8969C21.8571 38.0268 21.8758 38.165 21.9435 38.2811C22.0111 38.3972 22.1222 38.4816 22.2521 38.5158L32.9396 41.3302C33.2097 41.4004 33.4856 41.2389 33.5568 40.969C33.6279 40.6992 33.4674 40.4227 33.1979 40.3505L23.7785 37.8701C26.8279 35.8983 27.7594 31.8607 25.8822 28.7522C24.005 25.6437 19.9979 24.5886 16.8332 26.3694C13.6685 28.1503 12.4909 32.1231 14.1737 35.341L10.6334 34.4085C8.19809 33.7677 5.70431 35.2218 5.0625 37.6569L0.152677 56.3016C-0.155437 57.471 0.0136528 58.7149 0.622745 59.7597C1.23184 60.8045 2.23103 61.5644 3.40049 61.8724L25.9655 67.8149C26.1407 67.8618 26.3277 67.8114 26.4556 67.6827C26.5836 67.5541 26.6329 67.3668 26.5851 67.1918C26.5372 67.0168 26.3994 66.8808 26.2237 66.8352Z" fill="black"/>
</svg>
