<svg width="71" height="74" viewBox="0 0 71 74" fill="none" xmlns="http://www.w3.org/2000/svg">
<path fill-rule="evenodd" clip-rule="evenodd" d="M70.4611 0.591055L70.4603 0.594165C71.2234 17.4643 66.3344 30.6211 55.9394 39.7148C56.2632 41.1106 57.3323 47.0446 53.2849 51.2776C51.6672 52.97 50.1726 54.4739 48.8425 55.7478C48.3768 56.1991 47.7537 56.4514 47.1052 56.4514C46.9509 56.4513 46.797 56.4374 46.6452 56.4099C45.8476 56.2694 45.1674 55.7514 44.82 55.0198L41.5177 48.1662C38.7087 49.2368 35.7912 49.9973 32.817 50.4343L32.5778 50.4617L20.1769 38.0935L20.2033 37.8537C20.6346 34.8657 21.3915 31.9339 22.4606 29.1106C21.5841 28.7348 19.7239 27.8449 15.5905 25.8678L15.5836 25.8645C14.8537 25.5158 14.3351 24.8386 14.1887 24.0431C14.0423 23.2476 14.2859 22.4301 14.8439 21.8445C16.1061 20.5188 17.6061 19.0198 19.3019 17.3889C23.5244 13.3296 29.4609 14.3819 30.8576 14.7016C39.93 4.27129 53.0866 -0.656445 69.9826 0.0701049C70.0046 0.0738802 70.0264 0.0792271 70.0477 0.0861049C70.2184 0.106268 70.3632 0.220747 70.4222 0.382165C70.4316 0.411297 70.4382 0.44123 70.4421 0.471585C70.4497 0.49647 70.4553 0.521871 70.4591 0.547585L70.4601 0.584585L70.4611 0.591055ZM54.9387 39.3204C54.9717 39.2526 55.0198 39.1933 55.0792 39.147C65.2889 30.3339 70.125 17.5176 69.4728 1.05876C53.0065 0.457625 40.2102 5.32635 31.4268 15.5609L31.4093 15.5801L31.4083 15.5813L31.4059 15.5831C31.361 15.6339 31.3063 15.675 31.2449 15.7038C31.2291 15.7101 31.2129 15.7155 31.1964 15.7201C31.1502 15.7376 31.1015 15.7481 31.0522 15.751C31.0441 15.7513 31.0366 15.7561 31.0284 15.7561C31.0072 15.7538 30.9863 15.7501 30.9656 15.7451C30.9428 15.7452 30.9201 15.7436 30.8976 15.7405C30.8326 15.7224 24.2872 13.9826 19.9952 18.1096C18.3097 19.7302 16.8205 21.219 15.5685 22.5339C15.231 22.8875 15.0835 23.3814 15.172 23.8621C15.2604 24.3428 15.574 24.7519 16.0152 24.9621C16.0152 24.9621 23.1925 28.3957 23.2872 28.4407L23.7028 28.6369L23.5426 29.0681C22.4727 31.8672 21.6971 34.7701 21.2282 37.7297L32.9386 49.4094C35.8968 48.932 38.7974 48.1482 41.5934 47.0705C42.0485 46.964 42.049 46.965 45.6743 54.4896L45.7208 54.5861C45.9326 55.0267 46.3427 55.3391 46.8238 55.4261C47.3048 55.5131 47.7984 55.3641 48.151 55.0256C49.4703 53.7619 50.9547 52.2683 52.5621 50.5861C56.6779 46.282 54.9186 39.7429 54.9005 39.677C54.8921 39.636 54.889 39.594 54.8914 39.5522C54.8913 39.545 54.8904 39.5379 54.8894 39.5309C54.8882 39.5214 54.8869 39.512 54.8878 39.5024C54.8931 39.4475 54.9077 39.394 54.9309 39.344C54.9343 39.3363 54.9349 39.3279 54.9387 39.3204Z" fill="black"/>
<path fill-rule="evenodd" clip-rule="evenodd" d="M39.4448 23.5974C39.445 19.2912 42.936 15.8004 47.2422 15.8005C51.5463 15.8058 55.0341 19.2938 55.0391 23.5979C55.0389 27.9041 51.5479 31.3949 47.2417 31.3948C42.9355 31.3946 39.4447 27.9036 39.4448 23.5974ZM40.9623 26.1989C42.0144 28.7388 44.493 30.3949 47.2422 30.3948C50.9942 30.3905 54.0348 27.3499 54.0391 23.5979C54.0392 20.8487 52.3831 18.3701 49.8432 17.318C47.3033 16.2658 44.3796 16.8474 42.4357 18.7914C40.4917 20.7353 39.9101 23.659 40.9623 26.1989Z" fill="black"/>
<path d="M24.8199 52.7703C24.5828 52.6284 24.2757 52.7056 24.1339 52.9426C23.992 53.1797 24.0692 53.4868 24.3062 53.6286C26.1361 54.8118 27.2376 56.8452 27.2291 59.0242C27.1873 61.2288 26.295 63.3321 24.7388 64.8943C23.1543 66.4682 21.1865 67.6014 19.0298 68.1819C18.0772 68.4587 17.0757 68.657 16.108 68.8489L15.3003 69.011C11.7411 69.7408 8.2488 70.7654 4.85941 72.074C4.72806 72.1248 4.59525 72.1824 4.46341 72.2459C4.02786 72.4588 3.51688 72.4512 3.08789 72.2253C2.718 72.0347 2.46498 71.675 2.41064 71.2624C2.14596 69.2821 2.22026 67.2711 2.63037 65.3157C3.28049 62.3676 4.43872 59.5551 6.05322 57.0041C6.81006 55.7644 6.83935 54.7278 6.13427 54.1609C5.80276 53.9284 5.41098 53.7969 5.00634 53.7825L1.77051 53.4123C1.68032 53.4046 1.59086 53.3898 1.50293 53.3683C1.5 53.3596 1.47656 53.2741 1.58642 52.9865C2.66821 49.735 4.93437 47.0098 7.93408 45.3532C11.0732 43.8176 15.0054 44.3649 17.0781 46.6281C17.2648 46.8313 17.5808 46.8448 17.7842 46.6584C17.9876 46.4719 18.0015 46.156 17.8154 45.9523C15.416 43.3332 11.0761 42.7028 7.49459 44.4548C4.26637 46.222 1.82301 49.1412 0.651886 52.6301C0.428122 53.0711 0.460826 53.5986 0.737336 54.0085C0.981627 54.2535 1.3105 54.3956 1.65634 54.4055L4.89267 54.7757C5.10761 54.7803 5.31829 54.8366 5.50692 54.9397C5.82092 55.1922 5.55429 55.9026 5.19979 56.4827C3.52452 59.1332 2.32333 62.0551 1.64999 65.1175C1.2178 67.1839 1.14018 69.3087 1.42045 71.4011C1.52038 72.1292 1.96523 72.7644 2.61527 73.1072C2.97692 73.2996 3.38043 73.3999 3.79008 73.3992C4.17329 73.3993 4.55161 73.3131 4.89701 73.1472C5.00443 73.0954 5.11185 73.0487 5.21928 73.007C8.55687 71.7184 11.9958 70.7094 15.5005 69.9904L16.3023 69.8298C17.2915 69.634 18.3145 69.4309 19.3091 69.1418C21.634 68.5126 23.7543 67.2871 25.46 65.5866C27.1963 63.8359 28.1885 61.4817 28.229 59.0163C28.2312 56.4894 26.9463 54.1353 24.8199 52.7703Z" fill="black"/>
</svg>
