<svg width="76" height="70" viewBox="0 0 76 70" fill="none" xmlns="http://www.w3.org/2000/svg">
<path d="M43.3452 8.92041H32.063C31.7868 8.92041 31.563 9.14427 31.563 9.42041C31.563 9.69655 31.7868 9.92041 32.063 9.92041H43.3452C43.6213 9.92041 43.8452 9.69655 43.8452 9.42041C43.8452 9.14427 43.6213 8.92041 43.3452 8.92041Z" fill="black"/>
<path fill-rule="evenodd" clip-rule="evenodd" d="M61.9561 49.897H71.0151C73.4993 49.8997 75.5124 51.9128 75.5151 54.397V64.5059C75.5124 66.99 73.4993 69.0031 71.0151 69.0059H50.5C48.0158 69.0032 46.0027 66.99 46 64.5059V54.397C46.0027 51.9128 48.0158 49.8997 50.5 49.897H60.9561V43.6338C60.9537 41.7018 59.3881 40.1361 57.4561 40.1338H18.7573C16.8253 40.1361 15.2597 41.7018 15.2573 43.6338V49.897H25.0151C27.4993 49.8997 29.5124 51.9128 29.5151 54.397V64.5059C29.5124 66.99 27.4993 69.0031 25.0151 69.0059H4.5C2.01584 69.0032 0.00271157 66.99 0 64.5059V54.397C0.00271157 51.9128 2.01584 49.8997 4.5 49.897H14.2573V43.6338C14.26 41.1496 16.2732 39.1365 18.7573 39.1338H37.204V28.7544H27.4981C25.0139 28.7517 23.0008 26.7386 22.9981 24.2544V4.5C23.0008 2.01584 25.0139 0.00270607 27.4981 0H47.2524C49.7366 0.00270607 51.7497 2.01584 51.7524 4.5V24.2544C51.7497 26.7386 49.7366 28.7517 47.2524 28.7544H38.2041V39.1338H57.4561C59.9402 39.1365 61.9533 41.1496 61.9561 43.6338V49.897ZM28.5151 54.397C28.5128 52.465 26.9472 50.8993 25.0151 50.897H4.5C2.56797 50.8993 1.00234 52.465 1 54.397V64.5059C1.00234 66.4379 2.56797 68.0035 4.5 68.0059H25.0151C26.9472 68.0035 28.5128 66.4379 28.5151 64.5059V54.397ZM27.4981 27.7544C25.566 27.7521 24.0004 26.1864 23.9981 24.2544V4.5C24.0004 2.56797 25.566 1.00234 27.4981 1H47.2524C49.1845 1.00234 50.7501 2.56797 50.7524 4.5V24.2544C50.7501 26.1864 49.1845 27.7521 47.2524 27.7544L27.4981 27.7544ZM71.0151 68.0059C72.9472 68.0035 74.5128 66.4379 74.5151 64.5059V54.397C74.5128 52.465 72.9472 50.8993 71.0151 50.897H50.5C48.568 50.8993 47.0023 52.465 47 54.397V64.5059C47.0023 66.4379 48.568 68.0035 50.5 68.0059H71.0151Z" fill="black"/>
<path d="M43.3452 17.9204H32.063C31.7868 17.9204 31.563 18.1443 31.563 18.4204C31.563 18.6966 31.7868 18.9204 32.063 18.9204H43.3452C43.6213 18.9204 43.8452 18.6966 43.8452 18.4204C43.8452 18.1443 43.6213 17.9204 43.3452 17.9204Z" fill="black"/>
<path d="M66.3984 58.9517H55.1162C54.8401 58.9517 54.6162 59.1755 54.6162 59.4517C54.6162 59.7278 54.8401 59.9517 55.1162 59.9517H66.3984C66.6746 59.9517 66.8984 59.7278 66.8984 59.4517C66.8984 59.1755 66.6746 58.9517 66.3984 58.9517Z" fill="black"/>
<path d="M9.11621 59.9517H20.3984C20.6746 59.9517 20.8984 59.7278 20.8984 59.4517C20.8984 59.1755 20.6746 58.9517 20.3984 58.9517H9.11621C8.84007 58.9517 8.61621 59.1755 8.61621 59.4517C8.61621 59.7278 8.84007 59.9517 9.11621 59.9517Z" fill="black"/>
</svg>
