<svg width="29" height="24" viewBox="0 0 29 24" fill="none" xmlns="http://www.w3.org/2000/svg">
<path fill-rule="evenodd" clip-rule="evenodd" d="M8.8966 23.4546C19.463 23.4546 25.2414 14.6066 25.2414 6.93437C25.2414 6.68295 25.2364 6.43278 25.225 6.18373C26.3465 5.36426 27.3216 4.34171 28.0908 3.17743C27.0614 3.63964 25.9537 3.95105 24.7917 4.09154C25.9777 3.37282 26.8884 2.23537 27.3178 0.879663C26.2077 1.54472 24.9787 2.02855 23.6702 2.28902C22.6219 1.1604 21.129 0.45459 19.4769 0.45459C16.3043 0.45459 13.7314 3.05495 13.7314 6.26037C13.7314 6.71612 13.7819 7.15919 13.8805 7.58426C9.10626 7.34167 4.87255 5.03111 2.03962 1.51789C1.54581 2.37574 1.26156 3.37282 1.26156 4.43624C1.26156 6.45066 2.27583 8.22895 3.81796 9.26927C2.8757 9.23995 1.99034 8.97823 1.21608 8.54297C1.21485 8.5672 1.21485 8.59142 1.21485 8.61689C1.21485 11.4293 3.19535 13.7769 5.82365 14.3092C5.34116 14.4419 4.83346 14.5135 4.3093 14.5135C3.93925 14.5135 3.57928 14.4764 3.2294 14.4087C3.96064 16.7156 6.08136 18.3942 8.59599 18.4416C6.62949 19.9989 4.15272 20.927 1.46114 20.927C0.997684 20.927 0.540388 20.9002 0.0908203 20.8465C2.63322 22.4934 5.65184 23.4546 8.8966 23.4546Z" fill="white"/>
</svg>
