<svg width="79" height="27" viewBox="0 0 79 27" fill="none" xmlns="http://www.w3.org/2000/svg">
<path d="M34.0594 25.6591H27.7163L31.6837 0.768921H38.0265L34.0594 25.6591Z" fill="#151515"/>
<path d="M57.0534 1.37742C55.8023 0.873804 53.8179 0.317749 51.3642 0.317749C45.1002 0.317749 40.6891 3.70687 40.662 8.55229C40.61 12.1272 43.8202 14.1128 46.2212 15.3048C48.6753 16.5229 49.5095 17.3179 49.5095 18.4036C49.4845 20.0711 47.5265 20.8397 45.7002 20.8397C43.1678 20.8397 41.8109 20.4434 39.7488 19.5157L38.9135 19.118L38.0259 24.7053C39.5136 25.393 42.2545 26.0033 45.1002 26.03C51.7558 26.03 56.0888 22.6933 56.1402 17.5298C56.1655 14.6963 54.4704 12.5253 50.8158 10.7512C48.5973 9.61231 47.2386 8.84439 47.2386 7.67914C47.2646 6.61982 48.3877 5.53481 50.8921 5.53481C52.9542 5.48167 54.4693 5.98458 55.6171 6.48785L56.1908 6.75215L57.0534 1.37742V1.37742V1.37742Z" fill="#151515"/>
<path fill-rule="evenodd" clip-rule="evenodd" d="M68.4076 0.768921H73.314L78.4313 25.6587H72.5582C72.5582 25.6587 71.9834 22.7989 71.8013 21.9251H63.6573C63.4218 22.5867 62.326 25.6587 62.326 25.6587H55.6704L65.0923 2.83407C65.7451 1.21869 66.8946 0.768921 68.4076 0.768921ZM68.0167 9.87731C68.0167 9.87731 66.0066 15.4115 65.4842 16.8414H70.7566C70.4957 15.5969 69.2945 9.63905 69.2945 9.63905L68.8512 7.49437C68.6646 8.04662 68.3946 8.80588 68.2125 9.318C68.0891 9.66518 68.006 9.89878 68.0167 9.87731Z" fill="#151515"/>
<path d="M22.4179 0.768921L16.2059 17.7416L15.5271 14.2994C14.3786 10.3274 10.7768 6.01203 6.75732 3.86629L12.4473 25.6327H19.1549L29.1252 0.768921H22.4179V0.768921V0.768921Z" fill="#151515"/>
<path d="M10.4378 0.768921H0.232336L0.12793 1.27183C8.0888 3.33733 13.3611 8.31613 15.5273 14.3004L13.3088 2.86117C12.9435 1.27148 11.8211 0.821359 10.4378 0.768921V0.768921Z" fill="#151515"/>
</svg>
